<svg xmlns="http://www.w3.org/2000/svg" viewBox="0 0 64 64" width="64" height="64" role="img" aria-label="Copa Libertadores">
  <defs>
    <linearGradient id="lib" x1="0" y1="0" x2="1" y2="1">
      <stop offset="0" stop-color="#FFF3C4"/>
      <stop offset="0.45" stop-color="#F3C14B"/>
      <stop offset="1" stop-color="#A9761A"/>
    </linearGradient>
    <linearGradient id="brillo" x1="0" y1="0" x2="1" y2="0">
      <stop offset="0" stop-color="#ffffff" stop-opacity="0.55"/>
      <stop offset="0.4" stop-color="#ffffff" stop-opacity="0"/>
    </linearGradient>
  </defs>
  <path d="M18 12 h28 v11 c0 9.5 -6.3 16 -14 16 S18 32.5 18 23 z" fill="url(#lib)"/>
  <path d="M18 14 h6 v9 c0 6.5 2.6 11 6 13 -7 -1.4 -12 -7 -12 -13 z" fill="url(#brillo)"/>
  <path d="M18 16 c-5 0 -8 3 -8 7 s3 7 8 7" fill="none" stroke="url(#lib)" stroke-width="3" stroke-linecap="round"/>
  <path d="M46 16 c5 0 8 3 8 7 s-3 7 -8 7" fill="none" stroke="url(#lib)" stroke-width="3" stroke-linecap="round"/>
  <rect x="29" y="38" width="6" height="12" fill="url(#lib)"/>

  <rect x="17" y="50" width="30" height="4.5" rx="1.6" fill="url(#lib)"/>
  <rect x="14" y="54" width="36" height="5" rx="1.8" fill="url(#lib)" opacity="0.92"/>
  <rect x="11" y="58.4" width="42" height="4.6" rx="1.8" fill="url(#lib)" opacity="0.85"/>
  <circle cx="32" cy="22" r="5.2" fill="none" stroke="#7A4A18" stroke-opacity="0.55" stroke-width="1.6"/>
</svg>
